<svg width="712" height="320" viewBox="0 0 712 320" fill="none" xmlns="http://www.w3.org/2000/svg">
<path d="M392 48C392 21.4903 413.49 0 440 0H516V320H440C413.49 320 392 298.51 392 272V48Z" fill="white"/>
<path d="M588 0H664C690.51 0 712 21.4903 712 48V272C712 298.51 690.51 320 664 320H588V0Z" fill="white"/>
<path d="M0 320L0 244C0 217.49 21.4903 196 48 196H320V272C320 298.51 298.51 320 272 320H0Z" fill="white"/>
<path d="M0 124L0 48C0 21.4903 21.4903 0 48 0L320 0V76C320 102.51 298.51 124 272 124L0 124Z" fill="white"/>
</svg>
